<?xml version="1.0" encoding="UTF-8"?>
<!--Generator: Apple Native CoreSVG 123-->
<!DOCTYPE svg
PUBLIC "-//W3C//DTD SVG 1.1//EN"
       "http://www.w3.org/Graphics/SVG/1.1/DTD/svg11.dtd">
<svg version="1.1" xmlns="http://www.w3.org/2000/svg" xmlns:xlink="http://www.w3.org/1999/xlink" width="3300" height="2200">
 <!--glyph: "uni100358.medium", point size: 100.000000, font version: "Version 15.0d7e11", template writer version: "5"-->
 <g id="Notes">
  <rect height="2200" id="artboard" style="fill:white;opacity:1" width="3300" x="0" y="0"/>
  <line id="" style="fill:none;stroke:black;opacity:1;stroke-width:0.5;" x1="263" x2="3036" y1="292" y2="292"/>
  <text style="stroke:none;fill:black;font-family:-apple-system,&quot;SF Pro Display&quot;,&quot;SF Pro Text&quot;,Helvetica,sans-serif;font-weight:bold;" transform="matrix(1 0 0 1 263 322)">Weight/Scale Variations</text>
  <text style="stroke:none;fill:black;font-family:-apple-system,&quot;SF Pro Display&quot;,&quot;SF Pro Text&quot;,Helvetica,sans-serif;text-anchor:middle;" transform="matrix(1 0 0 1 559.711 322)">Ultralight</text>
  <text style="stroke:none;fill:black;font-family:-apple-system,&quot;SF Pro Display&quot;,&quot;SF Pro Text&quot;,Helvetica,sans-serif;text-anchor:middle;" transform="matrix(1 0 0 1 856.422 322)">Thin</text>
  <text style="stroke:none;fill:black;font-family:-apple-system,&quot;SF Pro Display&quot;,&quot;SF Pro Text&quot;,Helvetica,sans-serif;text-anchor:middle;" transform="matrix(1 0 0 1 1153.13 322)">Light</text>
  <text style="stroke:none;fill:black;font-family:-apple-system,&quot;SF Pro Display&quot;,&quot;SF Pro Text&quot;,Helvetica,sans-serif;text-anchor:middle;" transform="matrix(1 0 0 1 1449.84 322)">Regular</text>
  <text style="stroke:none;fill:black;font-family:-apple-system,&quot;SF Pro Display&quot;,&quot;SF Pro Text&quot;,Helvetica,sans-serif;text-anchor:middle;" transform="matrix(1 0 0 1 1746.56 322)">Medium</text>
  <text style="stroke:none;fill:black;font-family:-apple-system,&quot;SF Pro Display&quot;,&quot;SF Pro Text&quot;,Helvetica,sans-serif;text-anchor:middle;" transform="matrix(1 0 0 1 2043.27 322)">Semibold</text>
  <text style="stroke:none;fill:black;font-family:-apple-system,&quot;SF Pro Display&quot;,&quot;SF Pro Text&quot;,Helvetica,sans-serif;text-anchor:middle;" transform="matrix(1 0 0 1 2339.98 322)">Bold</text>
  <text style="stroke:none;fill:black;font-family:-apple-system,&quot;SF Pro Display&quot;,&quot;SF Pro Text&quot;,Helvetica,sans-serif;text-anchor:middle;" transform="matrix(1 0 0 1 2636.69 322)">Heavy</text>
  <text style="stroke:none;fill:black;font-family:-apple-system,&quot;SF Pro Display&quot;,&quot;SF Pro Text&quot;,Helvetica,sans-serif;text-anchor:middle;" transform="matrix(1 0 0 1 2933.4 322)">Black</text>
  <line id="" style="fill:none;stroke:black;opacity:1;stroke-width:0.5;" x1="263" x2="3036" y1="1903" y2="1903"/>
  <g id="" transform="matrix(1 0 0 1 263 1933)">
   <path d="M 9.24805 0.830078 C 13.5547 0.830078 17.1387 -2.74414 17.1387 -7.05078 C 17.1387 -11.3574 13.5449 -14.9316 9.23828 -14.9316 C 4.94141 -14.9316 1.36719 -11.3574 1.36719 -7.05078 C 1.36719 -2.74414 4.95117 0.830078 9.24805 0.830078 Z M 9.24805 -0.654297 C 5.70312 -0.654297 2.87109 -3.49609 2.87109 -7.05078 C 2.87109 -10.6055 5.69336 -13.4473 9.23828 -13.4473 C 12.793 -13.4473 15.6348 -10.6055 15.6445 -7.05078 C 15.6543 -3.49609 12.8027 -0.654297 9.24805 -0.654297 Z M 9.22852 -3.42773 C 9.69727 -3.42773 9.9707 -3.74023 9.9707 -4.25781 L 9.9707 -6.31836 L 12.1973 -6.31836 C 12.6953 -6.31836 13.0371 -6.57227 13.0371 -7.04102 C 13.0371 -7.51953 12.7148 -7.7832 12.1973 -7.7832 L 9.9707 -7.7832 L 9.9707 -10.0098 C 9.9707 -10.5273 9.69727 -10.8496 9.22852 -10.8496 C 8.75977 -10.8496 8.50586 -10.5078 8.50586 -10.0098 L 8.50586 -7.7832 L 6.29883 -7.7832 C 5.78125 -7.7832 5.44922 -7.51953 5.44922 -7.04102 C 5.44922 -6.57227 5.80078 -6.31836 6.29883 -6.31836 L 8.50586 -6.31836 L 8.50586 -4.25781 C 8.50586 -3.75977 8.75977 -3.42773 9.22852 -3.42773 Z"/>
  </g>
  <g id="" transform="matrix(1 0 0 1 281.506 1933)">
   <path d="M 11.709 2.91016 C 17.1582 2.91016 21.6699 -1.60156 21.6699 -7.05078 C 21.6699 -12.4902 17.1484 -17.0117 11.6992 -17.0117 C 6.25977 -17.0117 1.74805 -12.4902 1.74805 -7.05078 C 1.74805 -1.60156 6.26953 2.91016 11.709 2.91016 Z M 11.709 1.25 C 7.09961 1.25 3.41797 -2.44141 3.41797 -7.05078 C 3.41797 -11.6504 7.08984 -15.3516 11.6992 -15.3516 C 16.3086 -15.3516 20 -11.6504 20.0098 -7.05078 C 20.0195 -2.44141 16.3184 1.25 11.709 1.25 Z M 11.6895 -2.41211 C 12.207 -2.41211 12.5195 -2.77344 12.5195 -3.33984 L 12.5195 -6.23047 L 15.5762 -6.23047 C 16.123 -6.23047 16.5039 -6.51367 16.5039 -7.03125 C 16.5039 -7.55859 16.1426 -7.86133 15.5762 -7.86133 L 12.5195 -7.86133 L 12.5195 -10.9277 C 12.5195 -11.5039 12.207 -11.8555 11.6895 -11.8555 C 11.1719 -11.8555 10.8789 -11.4844 10.8789 -10.9277 L 10.8789 -7.86133 L 7.83203 -7.86133 C 7.26562 -7.86133 6.89453 -7.55859 6.89453 -7.03125 C 6.89453 -6.51367 7.28516 -6.23047 7.83203 -6.23047 L 10.8789 -6.23047 L 10.8789 -3.33984 C 10.8789 -2.79297 11.1719 -2.41211 11.6895 -2.41211 Z"/>
  </g>
  <g id="" transform="matrix(1 0 0 1 304.924 1933)">
   <path d="M 14.9707 5.67383 C 21.9336 5.67383 27.6953 -0.078125 27.6953 -7.04102 C 27.6953 -14.0039 21.9238 -19.7559 14.9609 -19.7559 C 8.00781 -19.7559 2.25586 -14.0039 2.25586 -7.04102 C 2.25586 -0.078125 8.01758 5.67383 14.9707 5.67383 Z M 14.9707 3.85742 C 8.93555 3.85742 4.08203 -1.00586 4.08203 -7.04102 C 4.08203 -13.0762 8.92578 -17.9395 14.9609 -17.9395 C 21.0059 -17.9395 25.8594 -13.0762 25.8691 -7.04102 C 25.8789 -1.00586 21.0156 3.85742 14.9707 3.85742 Z M 14.9512 -1.06445 C 15.5176 -1.06445 15.8691 -1.45508 15.8691 -2.06055 L 15.8691 -6.13281 L 20.1074 -6.13281 C 20.6934 -6.13281 21.1133 -6.46484 21.1133 -7.02148 C 21.1133 -7.59766 20.7227 -7.93945 20.1074 -7.93945 L 15.8691 -7.93945 L 15.8691 -12.1875 C 15.8691 -12.8027 15.5176 -13.1934 14.9512 -13.1934 C 14.3848 -13.1934 14.0625 -12.7832 14.0625 -12.1875 L 14.0625 -7.93945 L 9.83398 -7.93945 C 9.21875 -7.93945 8.80859 -7.59766 8.80859 -7.02148 C 8.80859 -6.46484 9.23828 -6.13281 9.83398 -6.13281 L 14.0625 -6.13281 L 14.0625 -2.06055 C 14.0625 -1.47461 14.3848 -1.06445 14.9512 -1.06445 Z"/>
  </g>
  <text style="stroke:none;fill:black;font-family:-apple-system,&quot;SF Pro Display&quot;,&quot;SF Pro Text&quot;,Helvetica,sans-serif;font-weight:bold;" transform="matrix(1 0 0 1 263 1953)">Design Variations</text>
  <text style="stroke:none;fill:black;font-family:-apple-system,&quot;SF Pro Display&quot;,&quot;SF Pro Text&quot;,Helvetica,sans-serif;" transform="matrix(1 0 0 1 263 1971)">Symbols are supported in up to nine weights and three scales.</text>
  <text style="stroke:none;fill:black;font-family:-apple-system,&quot;SF Pro Display&quot;,&quot;SF Pro Text&quot;,Helvetica,sans-serif;" transform="matrix(1 0 0 1 263 1989)">For optimal layout with text and other symbols, vertically align</text>
  <text style="stroke:none;fill:black;font-family:-apple-system,&quot;SF Pro Display&quot;,&quot;SF Pro Text&quot;,Helvetica,sans-serif;" transform="matrix(1 0 0 1 263 2007)">symbols with the adjacent text.</text>
  <rect height="14" id="" style="fill:#00AEEF;stroke:none;opacity:0.4;" width="3" x="776" y="1919"/>
  <g id="" transform="matrix(1 0 0 1 779 1933)">
   <path d="M 10.5273 0 L 12.373 0 L 7.17773 -14.0918 L 5.43945 -14.0918 L 0.244141 0 L 2.08984 0 L 3.50586 -4.0332 L 9.11133 -4.0332 Z M 6.2793 -11.9531 L 6.33789 -11.9531 L 8.59375 -5.52734 L 4.02344 -5.52734 Z"/>
  </g>
  <rect height="14" id="" style="fill:#00AEEF;stroke:none;opacity:0.4;" width="3" x="791.617" y="1919"/>
  <text style="stroke:none;fill:black;font-family:-apple-system,&quot;SF Pro Display&quot;,&quot;SF Pro Text&quot;,Helvetica,sans-serif;font-weight:bold;" transform="matrix(1 0 0 1 776 1953)">Margins</text>
  <text style="stroke:none;fill:black;font-family:-apple-system,&quot;SF Pro Display&quot;,&quot;SF Pro Text&quot;,Helvetica,sans-serif;" transform="matrix(1 0 0 1 776 1971)">Leading and trailing margins on the left and right side of each symbol</text>
  <text style="stroke:none;fill:black;font-family:-apple-system,&quot;SF Pro Display&quot;,&quot;SF Pro Text&quot;,Helvetica,sans-serif;" transform="matrix(1 0 0 1 776 1989)">can be adjusted by modifying the width of the blue rectangles.</text>
  <text style="stroke:none;fill:black;font-family:-apple-system,&quot;SF Pro Display&quot;,&quot;SF Pro Text&quot;,Helvetica,sans-serif;" transform="matrix(1 0 0 1 776 2007)">Modifications are automatically applied proportionally to all</text>
  <text style="stroke:none;fill:black;font-family:-apple-system,&quot;SF Pro Display&quot;,&quot;SF Pro Text&quot;,Helvetica,sans-serif;" transform="matrix(1 0 0 1 776 2025)">scales and weights.</text>
  <g id="" transform="matrix(1 0 0 1 1289 1933)">
   <path d="M 2.83203 3.11523 L 4.375 4.6582 C 5.22461 5.48828 6.19141 5.41992 7.06055 4.46289 L 17.2754 -6.66016 C 17.7051 -6.36719 18.0957 -6.37695 18.5645 -6.47461 L 19.6094 -6.68945 L 20.3027 -5.99609 L 20.2539 -5.47852 C 20.1855 -4.95117 20.3516 -4.53125 20.8496 -4.0332 L 21.6602 -3.22266 C 22.168 -2.71484 22.8223 -2.68555 23.3008 -3.16406 L 26.5527 -6.41602 C 27.0312 -6.89453 27.0117 -7.54883 26.5039 -8.05664 L 25.6836 -8.87695 C 25.1855 -9.375 24.7754 -9.55078 24.2383 -9.47266 L 23.7109 -9.41406 L 23.0566 -10.0781 L 23.3398 -11.2207 C 23.4863 -11.7871 23.3398 -12.2559 22.7148 -12.8613 L 20.3027 -15.2539 C 16.7578 -18.7793 12.2266 -18.6719 9.11133 -15.5371 C 8.69141 -15.1074 8.64258 -14.5215 8.91602 -14.0918 C 9.15039 -13.7207 9.62891 -13.4961 10.2734 -13.6621 C 11.7871 -14.043 13.3008 -13.9258 14.7852 -12.9199 L 14.1602 -11.3379 C 13.9258 -10.752 13.9453 -10.2734 14.1797 -9.83398 L 3.01758 0.439453 C 2.08008 1.30859 1.97266 2.25586 2.83203 3.11523 Z M 10.6738 -15.1465 C 13.3398 -17.1387 16.6504 -16.8262 19.0527 -14.4141 L 21.6797 -11.8066 C 21.9141 -11.5723 21.9434 -11.3867 21.8848 -11.0938 L 21.5039 -9.53125 L 23.0762 -7.95898 L 24.043 -8.04688 C 24.3262 -8.07617 24.4141 -8.05664 24.6387 -7.83203 L 25.2637 -7.20703 L 22.5098 -4.46289 L 21.8848 -5.07812 C 21.6602 -5.30273 21.6406 -5.40039 21.6699 -5.68359 L 21.7578 -6.64062 L 20.1953 -8.20312 L 18.5742 -7.89062 C 18.291 -7.83203 18.1445 -7.83203 17.9102 -8.07617 L 15.7324 -10.2539 C 15.5078 -10.4883 15.4785 -10.625 15.6055 -10.9473 L 16.5527 -13.2227 C 14.9512 -14.7559 12.8418 -15.6055 10.8008 -14.9512 C 10.7129 -14.9219 10.6445 -14.9414 10.6152 -14.9805 C 10.5859 -15.0293 10.5859 -15.0781 10.6738 -15.1465 Z M 4.10156 2.41211 C 3.61328 1.91406 3.78906 1.61133 4.12109 1.30859 L 15.0781 -8.80859 L 16.3086 -7.57812 L 6.15234 3.34961 C 5.84961 3.68164 5.46875 3.7793 5.06836 3.37891 Z"/>
  </g>
  <text style="stroke:none;fill:black;font-family:-apple-system,&quot;SF Pro Display&quot;,&quot;SF Pro Text&quot;,Helvetica,sans-serif;font-weight:bold;" transform="matrix(1 0 0 1 1289 1953)">Exporting</text>
  <text style="stroke:none;fill:black;font-family:-apple-system,&quot;SF Pro Display&quot;,&quot;SF Pro Text&quot;,Helvetica,sans-serif;" transform="matrix(1 0 0 1 1289 1971)">Symbols should be outlined when exporting to ensure the</text>
  <text style="stroke:none;fill:black;font-family:-apple-system,&quot;SF Pro Display&quot;,&quot;SF Pro Text&quot;,Helvetica,sans-serif;" transform="matrix(1 0 0 1 1289 1989)">design is preserved when submitting to Xcode.</text>
  <text id="template-version" style="stroke:none;fill:black;font-family:-apple-system,&quot;SF Pro Display&quot;,&quot;SF Pro Text&quot;,Helvetica,sans-serif;text-anchor:end;" transform="matrix(1 0 0 1 3036 1933)">Template v.1.0</text>
  <text style="stroke:none;fill:black;font-family:-apple-system,&quot;SF Pro Display&quot;,&quot;SF Pro Text&quot;,Helvetica,sans-serif;text-anchor:end;" transform="matrix(1 0 0 1 3036 1951)">Generated from envelope.circle.fill</text>
  <text style="stroke:none;fill:black;font-family:-apple-system,&quot;SF Pro Display&quot;,&quot;SF Pro Text&quot;,Helvetica,sans-serif;text-anchor:end;" transform="matrix(1 0 0 1 3036 1969)">Typeset at 100 points</text>
  <text style="stroke:none;fill:black;font-family:-apple-system,&quot;SF Pro Display&quot;,&quot;SF Pro Text&quot;,Helvetica,sans-serif;" transform="matrix(1 0 0 1 263 726)">Small</text>
  <text style="stroke:none;fill:black;font-family:-apple-system,&quot;SF Pro Display&quot;,&quot;SF Pro Text&quot;,Helvetica,sans-serif;" transform="matrix(1 0 0 1 263 1156)">Medium</text>
  <text style="stroke:none;fill:black;font-family:-apple-system,&quot;SF Pro Display&quot;,&quot;SF Pro Text&quot;,Helvetica,sans-serif;" transform="matrix(1 0 0 1 263 1586)">Large</text>
 </g>
 <g id="Guides">
  <g id="H-reference" style="fill:#27AAE1;stroke:none;" transform="matrix(1 0 0 1 339 696)">
   <path d="M 54.9316 0 L 57.666 0 L 30.5664 -70.459 L 28.0762 -70.459 L 0.976562 0 L 3.66211 0 L 12.9395 -24.4629 L 45.7031 -24.4629 Z M 29.1992 -67.0898 L 29.4434 -67.0898 L 44.8242 -26.709 L 13.8184 -26.709 Z"/>
  </g>
  <line id="Baseline-S" style="fill:none;stroke:#27AAE1;opacity:1;stroke-width:0.577;" x1="263" x2="3036" y1="696" y2="696"/>
  <line id="Capline-S" style="fill:none;stroke:#27AAE1;opacity:1;stroke-width:0.577;" x1="263" x2="3036" y1="625.541" y2="625.541"/>
  <g id="H-reference" style="fill:#27AAE1;stroke:none;" transform="matrix(1 0 0 1 339 1126)">
   <path d="M 54.9316 0 L 57.666 0 L 30.5664 -70.459 L 28.0762 -70.459 L 0.976562 0 L 3.66211 0 L 12.9395 -24.4629 L 45.7031 -24.4629 Z M 29.1992 -67.0898 L 29.4434 -67.0898 L 44.8242 -26.709 L 13.8184 -26.709 Z"/>
  </g>
  <line id="Baseline-M" style="fill:none;stroke:#27AAE1;opacity:1;stroke-width:0.577;" x1="263" x2="3036" y1="1126" y2="1126"/>
  <line id="Capline-M" style="fill:none;stroke:#27AAE1;opacity:1;stroke-width:0.577;" x1="263" x2="3036" y1="1055.54" y2="1055.54"/>
  <g id="H-reference" style="fill:#27AAE1;stroke:none;" transform="matrix(1 0 0 1 339 1556)">
   <path d="M 54.9316 0 L 57.666 0 L 30.5664 -70.459 L 28.0762 -70.459 L 0.976562 0 L 3.66211 0 L 12.9395 -24.4629 L 45.7031 -24.4629 Z M 29.1992 -67.0898 L 29.4434 -67.0898 L 44.8242 -26.709 L 13.8184 -26.709 Z"/>
  </g>
  <line id="Baseline-L" style="fill:none;stroke:#27AAE1;opacity:1;stroke-width:0.577;" x1="263" x2="3036" y1="1556" y2="1556"/>
  <line id="Capline-L" style="fill:none;stroke:#27AAE1;opacity:1;stroke-width:0.577;" x1="263" x2="3036" y1="1485.54" y2="1485.54"/>
  <rect height="119.336" id="left-margin" style="fill:#00AEEF;stroke:none;opacity:0.4;" width="8.74023" x="1391.3" y="1030.79"/>
  <rect height="119.336" id="right-margin" style="fill:#00AEEF;stroke:none;opacity:0.4;" width="8.74023" x="1499.65" y="1030.79"/>
 </g>
 <g id="Symbols">
  <g id="Black-L" transform="matrix(1 0 0 1 2854.05 1556)">
   <path d="M 79.3457 32.9102 C 116.748 32.9102 147.412 2.29492 147.412 -35.1074 C 147.412 -72.5586 116.748 -103.174 79.2969 -103.174 C 41.8945 -103.174 11.2793 -72.5586 11.2793 -35.1074 C 11.2793 2.29492 41.9434 32.9102 79.3457 32.9102 Z M 79.3945 -33.7402 C 78.2227 -33.7402 77.1484 -34.2773 75.8789 -35.5957 L 52.2949 -59.1797 C 53.3691 -59.8633 55.1758 -60.3027 57.5684 -60.3027 L 101.172 -60.3027 C 103.564 -60.3027 105.322 -59.8633 106.396 -59.1797 L 82.8613 -35.5957 C 81.5918 -34.3262 80.5176 -33.7402 79.3945 -33.7402 Z M 67.9199 -35.7422 L 48.1934 -15.918 C 47.6562 -16.8457 47.4121 -18.4082 47.4121 -20.5078 L 47.4121 -49.9023 C 47.4121 -52.2949 47.8027 -54.0527 48.4863 -55.0781 Z M 90.7715 -35.7422 L 110.254 -55.0781 C 110.889 -54.0527 111.328 -52.2949 111.328 -49.9023 L 111.328 -20.5078 C 111.328 -18.4082 111.035 -16.8457 110.547 -15.918 Z M 79.3457 -27.7832 C 81.6406 -27.7832 83.5449 -28.6133 85.498 -30.5176 L 86.8164 -31.7871 L 107.08 -11.5234 C 105.957 -10.6445 103.955 -10.1074 101.27 -10.1074 L 57.4707 -10.1074 C 54.7852 -10.1074 52.7832 -10.6445 51.6113 -11.5234 L 71.9238 -31.7871 L 73.1934 -30.5176 C 75.1465 -28.6133 77.0996 -27.7832 79.3457 -27.7832 Z"/>
  </g>
  <g id="Heavy-L" transform="matrix(1 0 0 1 2558.39 1556)">
   <path d="M 78.2715 31.8848 C 115.088 31.8848 145.312 1.66016 145.312 -35.1074 C 145.312 -71.9238 115.039 -102.148 78.2715 -102.148 C 41.4551 -102.148 11.2793 -71.9238 11.2793 -35.1074 C 11.2793 1.66016 41.5039 31.8848 78.2715 31.8848 Z M 78.3203 -33.2031 C 77.1484 -33.2031 76.0742 -33.6914 74.8047 -34.9609 L 50.1465 -59.668 C 51.123 -60.3516 52.9785 -60.8398 55.4688 -60.8398 L 101.123 -60.8398 C 103.613 -60.8398 105.42 -60.3516 106.445 -59.668 L 81.7871 -34.9609 C 80.5664 -33.7402 79.4434 -33.2031 78.3203 -33.2031 Z M 66.6992 -35.5957 L 46.3379 -15.1855 C 45.8496 -16.1133 45.5566 -17.627 45.5566 -19.7754 L 45.5566 -50.6348 C 45.5566 -52.9785 45.8984 -54.6875 46.5332 -55.6152 Z M 89.8438 -35.5957 L 110.01 -55.6152 C 110.596 -54.6875 110.938 -52.9785 110.938 -50.6348 L 110.938 -19.7754 C 110.938 -17.627 110.693 -16.1133 110.156 -15.1855 Z M 78.2715 -27.5879 C 80.5664 -27.5879 82.4219 -28.418 84.4727 -30.3711 L 85.9863 -31.8359 L 106.885 -10.9375 C 105.859 -10.1074 103.906 -9.57031 101.221 -9.57031 L 55.3711 -9.57031 C 52.6855 -9.57031 50.7324 -10.1074 49.6582 -10.9375 L 70.5566 -31.8359 L 72.0703 -30.3711 C 74.1211 -28.418 76.0254 -27.5879 78.2715 -27.5879 Z"/>
  </g>
  <g id="Bold-L" transform="matrix(1 0 0 1 2262.88 1556)">
   <path d="M 77.0996 30.7129 C 113.232 30.7129 142.92 0.976562 142.92 -35.1074 C 142.92 -71.2402 113.184 -100.977 77.0508 -100.977 C 40.9668 -100.977 11.2793 -71.2402 11.2793 -35.1074 C 11.2793 0.976562 41.0156 30.7129 77.0996 30.7129 Z M 77.0996 -32.6172 C 75.9766 -32.6172 74.8047 -33.0566 73.5352 -34.3262 L 47.7051 -60.2051 C 48.6328 -60.8887 50.4883 -61.4258 53.0762 -61.4258 L 101.123 -61.4258 C 103.711 -61.4258 105.518 -60.8887 106.494 -60.2051 L 80.6152 -34.3262 C 79.3945 -33.1055 78.2715 -32.6172 77.0996 -32.6172 Z M 65.2832 -35.4004 L 44.2871 -14.4043 C 43.7988 -15.2344 43.5059 -16.7969 43.5059 -18.9941 L 43.5059 -51.4648 C 43.5059 -53.7598 43.8477 -55.3711 44.3359 -56.2012 Z M 88.7695 -35.4004 L 109.717 -56.2012 C 110.254 -55.3711 110.547 -53.7598 110.547 -51.4648 L 110.547 -18.9941 C 110.547 -16.7969 110.303 -15.2344 109.766 -14.4043 Z M 77.0996 -27.3438 C 79.3457 -27.3438 81.2012 -28.2227 83.3008 -30.2246 L 85.1074 -31.8848 L 106.689 -10.3027 C 105.713 -9.47266 103.857 -8.98438 101.172 -8.98438 L 52.9785 -8.98438 C 50.293 -8.98438 48.4375 -9.47266 47.4609 -10.3027 L 69.043 -31.8848 L 70.8496 -30.2246 C 72.9492 -28.2227 74.8047 -27.3438 77.0996 -27.3438 Z"/>
  </g>
  <g id="Semibold-L" transform="matrix(1 0 0 1 1966.97 1556)">
   <path d="M 76.2695 29.8828 C 111.914 29.8828 141.309 0.488281 141.309 -35.1074 C 141.309 -70.752 111.865 -100.146 76.2695 -100.146 C 40.625 -100.146 11.2793 -70.752 11.2793 -35.1074 C 11.2793 0.488281 40.6738 29.8828 76.2695 29.8828 Z M 76.2695 -32.1777 C 75.1465 -32.1777 73.9258 -32.6172 72.7051 -33.8867 L 46.0449 -60.5957 C 46.9238 -61.2793 48.7793 -61.8652 51.416 -61.8652 L 101.123 -61.8652 C 103.76 -61.8652 105.615 -61.2793 106.494 -60.5957 L 79.834 -33.8867 C 78.6133 -32.666 77.4414 -32.1777 76.2695 -32.1777 Z M 64.3066 -35.2539 L 42.8711 -13.8184 C 42.3828 -14.6484 42.0898 -16.2109 42.0898 -18.457 L 42.0898 -52.002 C 42.0898 -54.248 42.3828 -55.8594 42.8711 -56.6406 Z M 88.0371 -35.2539 L 109.521 -56.6406 C 110.01 -55.8594 110.254 -54.248 110.254 -52.002 L 110.254 -18.457 C 110.254 -16.2109 110.01 -14.6484 109.521 -13.8184 Z M 76.2695 -27.1973 C 78.5156 -27.1973 80.3223 -28.0762 82.5195 -30.0781 L 84.4727 -31.9336 L 106.543 -9.86328 C 105.615 -9.08203 103.809 -8.59375 101.123 -8.59375 L 51.3672 -8.59375 C 48.6816 -8.59375 46.875 -9.08203 45.9473 -9.86328 L 68.0176 -31.9336 L 69.9707 -30.0781 C 72.168 -28.0762 73.9746 -27.1973 76.2695 -27.1973 Z"/>
  </g>
  <g id="Medium-L" transform="matrix(1 0 0 1 1670.87 1556)">
   <path d="M 75.6836 29.248 C 110.938 29.248 140.088 0.146484 140.088 -35.1074 C 140.088 -70.4102 110.889 -99.5117 75.6348 -99.5117 C 40.3809 -99.5117 11.2793 -70.4102 11.2793 -35.1074 C 11.2793 0.146484 40.3809 29.248 75.6836 29.248 Z M 75.6836 -31.8848 C 74.5117 -31.8848 73.291 -32.2754 72.0703 -33.5449 L 44.7266 -60.8398 C 45.6055 -61.5723 47.4609 -62.1582 50.1465 -62.1582 L 101.123 -62.1582 C 103.809 -62.1582 105.664 -61.5723 106.543 -60.8398 L 79.1992 -33.5449 C 78.0273 -32.3242 76.8066 -31.8848 75.6836 -31.8848 Z M 63.5742 -35.1562 L 41.7969 -13.4277 C 41.3086 -14.209 41.0156 -15.7715 41.0156 -18.0176 L 41.0156 -52.4414 C 41.0156 -54.6875 41.2598 -56.25 41.6992 -56.9824 Z M 87.5 -35.1562 L 109.375 -56.9824 C 109.814 -56.25 110.059 -54.6875 110.059 -52.4414 L 110.059 -18.0176 C 110.059 -15.7715 109.814 -14.209 109.277 -13.4277 Z M 75.6348 -27.0996 C 77.8809 -27.0996 79.6875 -27.9297 81.9336 -29.9805 L 84.0332 -31.9336 L 106.445 -9.52148 C 105.566 -8.74023 103.809 -8.30078 101.074 -8.30078 L 50.1465 -8.30078 C 47.4609 -8.30078 45.6543 -8.74023 44.8242 -9.52148 L 67.2363 -31.9336 L 69.3359 -29.9805 C 71.5332 -27.9297 73.3887 -27.0996 75.6348 -27.0996 Z"/>
  </g>
  <g id="Regular-L" transform="matrix(1 0 0 1 1374.97 1556)">
   <path d="M 74.8535 28.4668 C 109.668 28.4668 138.477 -0.341797 138.477 -35.1074 C 138.477 -69.9219 109.619 -98.7305 74.8047 -98.7305 C 40.0391 -98.7305 11.2793 -69.9219 11.2793 -35.1074 C 11.2793 -0.341797 40.0879 28.4668 74.8535 28.4668 Z M 74.8535 -31.4453 C 73.7305 -31.4453 72.4609 -31.8359 71.2402 -33.0566 L 43.0664 -61.2305 C 43.8965 -61.9141 45.8008 -62.5488 48.5352 -62.5488 L 101.123 -62.5488 C 103.857 -62.5488 105.762 -61.9141 106.543 -61.2305 L 78.418 -33.0566 C 77.2461 -31.8848 75.9766 -31.4453 74.8535 -31.4453 Z M 62.5977 -35.0586 L 40.3809 -12.8418 C 39.8926 -13.623 39.6484 -15.2344 39.6484 -17.4805 L 39.6484 -52.9785 C 39.6484 -55.2246 39.8438 -56.7383 40.2344 -57.373 Z M 86.8164 -35.0586 L 109.18 -57.373 C 109.57 -56.7383 109.766 -55.2246 109.766 -52.9785 L 109.766 -17.4805 C 109.766 -15.2344 109.521 -13.623 109.033 -12.8418 Z M 74.8047 -26.9531 C 77.0508 -26.9531 78.8574 -27.7832 81.1523 -29.8828 L 83.3984 -31.9824 L 106.299 -9.13086 C 105.469 -8.34961 103.76 -7.91016 101.074 -7.91016 L 48.5352 -7.91016 C 45.8496 -7.91016 44.0918 -8.34961 43.3105 -9.13086 L 66.2109 -31.9824 L 68.457 -29.8828 C 70.752 -27.7832 72.5586 -26.9531 74.8047 -26.9531 Z"/>
  </g>
  <g id="Light-L" transform="matrix(1 0 0 1 1079.18 1556)">
   <path d="M 73.9258 27.5879 C 108.301 27.5879 136.621 -0.732422 136.621 -35.1074 C 136.621 -69.4336 108.252 -97.7539 73.9258 -97.7539 C 39.5508 -97.7539 11.2793 -69.4336 11.2793 -35.1074 C 11.2793 -0.732422 39.5996 27.5879 73.9258 27.5879 Z M 73.9746 -30.957 C 72.7539 -30.957 71.3867 -31.4453 70.166 -32.6172 L 41.6504 -61.1816 C 42.4316 -62.0117 44.3848 -62.6465 47.2656 -62.6465 L 100.635 -62.6465 C 103.516 -62.6465 105.469 -62.0117 106.25 -61.1816 L 77.6855 -32.6172 C 76.5625 -31.4941 75.1465 -30.957 73.9746 -30.957 Z M 62.0605 -34.9121 L 39.3555 -12.2559 C 38.7207 -13.0859 38.4277 -14.6973 38.4277 -17.041 L 38.4277 -53.418 C 38.4277 -55.6152 38.6719 -57.1777 39.1113 -57.8613 Z M 85.498 -34.9121 L 108.496 -57.8613 C 108.887 -57.1777 109.18 -55.6152 109.18 -53.418 L 109.18 -17.041 C 109.18 -14.6973 108.838 -13.0859 108.252 -12.2559 Z M 73.9258 -27.0996 C 76.123 -27.0996 77.9785 -27.9785 80.0781 -29.8828 L 82.6172 -32.2754 L 105.908 -8.98438 C 105.078 -8.1543 103.369 -7.76367 100.586 -7.76367 L 47.2656 -7.76367 C 44.4824 -7.76367 42.7734 -8.1543 41.9434 -8.98438 L 65.2344 -32.2754 L 67.8223 -29.8828 C 69.873 -27.9785 71.7285 -27.0996 73.9258 -27.0996 Z"/>
  </g>
  <g id="Thin-L" transform="matrix(1 0 0 1 783.693 1556)">
   <path d="M 72.7051 26.416 C 106.494 26.416 134.18 -1.26953 134.18 -35.0586 C 134.18 -68.7988 106.494 -96.4844 72.7051 -96.4844 C 38.9648 -96.4844 11.2793 -68.7988 11.2793 -35.0586 C 11.2793 -1.26953 38.9648 26.416 72.7051 26.416 Z M 72.8027 -30.2734 C 71.5332 -30.2734 69.9707 -30.9082 68.7988 -32.0312 L 39.6973 -61.1816 C 40.4785 -62.1094 42.5781 -62.793 45.6055 -62.793 L 100 -62.793 C 103.027 -62.793 105.078 -62.1094 105.859 -61.1816 L 76.7578 -32.0312 C 75.6348 -30.9082 74.0723 -30.2734 72.8027 -30.2734 Z M 61.3281 -34.7656 L 37.9395 -11.4258 C 37.1582 -12.3535 36.8164 -14.0625 36.8164 -16.4551 L 36.8164 -53.9551 C 36.8164 -56.2012 37.1094 -57.7148 37.5977 -58.4961 Z M 83.7891 -34.7656 L 107.568 -58.4961 C 108.008 -57.7148 108.301 -56.2012 108.301 -53.9551 L 108.301 -16.4551 C 108.301 -14.0625 107.959 -12.3535 107.178 -11.4258 Z M 72.8027 -27.3438 C 74.9023 -27.3438 76.8555 -28.2227 78.6621 -29.8828 L 81.5918 -32.666 L 105.42 -8.83789 C 104.541 -7.91016 102.832 -7.56836 100 -7.56836 L 45.6055 -7.56836 C 42.7246 -7.56836 41.0156 -7.91016 40.1367 -8.83789 L 63.9648 -32.666 L 66.9434 -29.8828 C 68.7012 -28.2227 70.6543 -27.3438 72.8027 -27.3438 Z"/>
  </g>
  <g id="Ultralight-L" transform="matrix(1 0 0 1 487.616 1556)">
   <path d="M 72.1191 25.7812 C 105.566 25.7812 132.91 -1.5625 132.91 -35.0098 C 132.91 -68.5059 105.566 -95.8496 72.1191 -95.8496 C 38.623 -95.8496 11.2793 -68.5059 11.2793 -35.0098 C 11.2793 -1.5625 38.623 25.7812 72.1191 25.7812 Z M 72.168 -29.9805 C 70.8984 -29.9805 69.2383 -30.6152 68.1152 -31.7383 L 38.7207 -61.1816 C 39.502 -62.1582 41.6504 -62.8906 44.7266 -62.8906 L 99.6582 -62.8906 C 102.734 -62.8906 104.883 -62.1582 105.664 -61.1816 L 76.2695 -31.7383 C 75.1465 -30.6152 73.4863 -29.9805 72.168 -29.9805 Z M 60.9375 -34.668 L 37.2559 -11.0352 C 36.377 -12.0117 35.9863 -13.7207 35.9863 -16.1621 L 35.9863 -54.1992 C 35.9863 -56.4941 36.3281 -58.0078 36.8164 -58.8379 Z M 82.9102 -34.668 L 107.08 -58.8379 C 107.568 -58.0078 107.91 -56.4941 107.91 -54.1992 L 107.91 -16.1621 C 107.91 -13.7207 107.471 -12.0117 106.641 -11.0352 Z M 72.2168 -27.4414 C 74.2676 -27.4414 76.3184 -28.3203 77.9297 -29.8828 L 81.0547 -32.8613 L 105.176 -8.78906 C 104.297 -7.76367 102.588 -7.4707 99.6582 -7.4707 L 44.7266 -7.4707 C 41.7969 -7.4707 40.1367 -7.76367 39.209 -8.78906 L 63.3301 -32.8613 L 66.4551 -29.8828 C 68.0664 -28.3203 70.1172 -27.4414 72.2168 -27.4414 Z"/>
  </g>
  <g id="Black-M" transform="matrix(1 0 0 1 2870.97 1126)">
   <path d="M 62.4023 18.5547 C 91.9922 18.5547 116.113 -5.56641 116.113 -35.1562 C 116.113 -64.7461 91.9922 -88.8184 62.4023 -88.8184 C 32.8125 -88.8184 8.74023 -64.7461 8.74023 -35.1562 C 8.74023 -5.56641 32.8125 18.5547 62.4023 18.5547 Z M 62.5 -34.5703 C 61.5234 -34.5703 60.7422 -35.0586 59.7168 -36.0352 L 42.6758 -53.1738 C 43.5547 -53.7109 45.0195 -54.0527 46.8262 -54.0527 L 78.1738 -54.0527 C 79.9316 -54.0527 81.3477 -53.7109 82.2754 -53.1738 L 65.2344 -36.0352 C 64.209 -35.0586 63.4277 -34.5703 62.5 -34.5703 Z M 54.0527 -35.791 L 39.2578 -20.8984 C 38.8184 -21.7285 38.5742 -22.9004 38.5742 -24.5605 L 38.5742 -45.8496 C 38.5742 -47.7539 38.916 -49.1699 39.5508 -50.0977 Z M 70.9473 -35.791 L 85.4004 -50.0977 C 86.0352 -49.1699 86.4258 -47.7539 86.4258 -45.8496 L 86.4258 -24.5605 C 86.4258 -22.9004 86.1328 -21.7285 85.6934 -20.8984 Z M 62.5 -29.7852 C 64.209 -29.7852 65.7715 -30.4688 67.0898 -31.7871 L 67.9199 -32.666 L 83.0566 -17.5781 C 82.0312 -16.7969 80.4199 -16.3574 78.2715 -16.3574 L 46.6797 -16.3574 C 44.5801 -16.3574 42.9199 -16.7969 41.9434 -17.5781 L 57.0312 -32.666 L 57.8613 -31.7871 C 59.1797 -30.4688 60.7422 -29.7852 62.5 -29.7852 Z"/>
  </g>
  <g id="Heavy-M" transform="matrix(1 0 0 1 2575.19 1126)">
   <path d="M 61.5234 17.627 C 90.5273 17.627 114.258 -6.10352 114.258 -35.1562 C 114.258 -64.1602 90.5273 -87.8906 61.4746 -87.8906 C 32.4707 -87.8906 8.74023 -64.1602 8.74023 -35.1562 C 8.74023 -6.10352 32.4707 17.627 61.5234 17.627 Z M 61.5234 -34.082 C 60.6445 -34.082 59.8145 -34.5215 58.7891 -35.5469 L 40.6738 -53.6621 C 41.5039 -54.248 42.9688 -54.5898 44.8242 -54.5898 L 78.2715 -54.5898 C 80.127 -54.5898 81.4941 -54.248 82.373 -53.6621 L 64.2578 -35.5469 C 63.2812 -34.5215 62.4512 -34.082 61.5234 -34.082 Z M 52.832 -35.6445 L 37.5 -20.2637 C 37.1094 -21.0449 36.8652 -22.2168 36.8652 -23.877 L 36.8652 -46.5332 C 36.8652 -48.3887 37.207 -49.7559 37.7441 -50.5859 Z M 70.2148 -35.6445 L 85.3027 -50.5859 C 85.8398 -49.7559 86.1816 -48.3887 86.1816 -46.5332 L 86.1816 -23.877 C 86.1816 -22.2168 85.9375 -21.0449 85.5469 -20.2637 Z M 61.5234 -29.541 C 63.2812 -29.541 64.7949 -30.2246 66.2109 -31.6406 L 67.2852 -32.6172 L 82.9102 -16.9434 C 82.0312 -16.2598 80.4688 -15.8203 78.3691 -15.8203 L 44.7266 -15.8203 C 42.627 -15.8203 41.0645 -16.2598 40.1367 -16.9434 L 55.8105 -32.6172 L 56.8359 -31.6406 C 58.252 -30.2246 59.7656 -29.541 61.5234 -29.541 Z"/>
  </g>
  <g id="Bold-M" transform="matrix(1 0 0 1 2279.5 1126)">
   <path d="M 60.498 16.6016 C 88.8672 16.6016 112.207 -6.73828 112.207 -35.1562 C 112.207 -63.5742 88.8672 -86.9141 60.4492 -86.9141 C 32.0312 -86.9141 8.74023 -63.5742 8.74023 -35.1562 C 8.74023 -6.73828 32.0801 16.6016 60.498 16.6016 Z M 60.498 -33.5938 C 59.6191 -33.5938 58.7402 -33.9355 57.7637 -34.9121 L 38.4766 -54.248 C 39.209 -54.7852 40.625 -55.1758 42.5781 -55.1758 L 78.3691 -55.1758 C 80.3223 -55.1758 81.7383 -54.7852 82.5195 -54.248 L 63.1836 -34.9121 C 62.2559 -33.9844 61.377 -33.5938 60.498 -33.5938 Z M 51.4648 -35.4492 L 35.5957 -19.5801 C 35.2051 -20.2637 34.9609 -21.4355 34.9609 -23.1445 L 34.9609 -47.3145 C 34.9609 -49.1211 35.2539 -50.3906 35.6934 -51.123 Z M 69.4824 -35.4492 L 85.2051 -51.123 C 85.6445 -50.3906 85.9375 -49.1211 85.9375 -47.3145 L 85.9375 -23.1445 C 85.9375 -21.4355 85.6934 -20.2637 85.3516 -19.5801 Z M 60.4492 -29.248 C 62.207 -29.248 63.6719 -29.9316 65.2832 -31.4453 L 66.5039 -32.6172 L 82.8125 -16.3086 C 81.9824 -15.625 80.5176 -15.2344 78.418 -15.2344 L 42.5293 -15.2344 C 40.4297 -15.2344 38.916 -15.625 38.1348 -16.3086 L 54.4434 -32.6172 L 55.6641 -31.4453 C 57.2754 -29.9316 58.7402 -29.248 60.4492 -29.248 Z"/>
  </g>
  <g id="Semibold-M" transform="matrix(1 0 0 1 1983.5 1126)">
   <path d="M 59.7656 15.8691 C 87.7441 15.8691 110.791 -7.17773 110.791 -35.1562 C 110.791 -63.1348 87.6953 -86.1816 59.7656 -86.1816 C 31.7871 -86.1816 8.74023 -63.1348 8.74023 -35.1562 C 8.74023 -7.17773 31.7871 15.8691 59.7656 15.8691 Z M 59.7656 -33.2031 C 58.8867 -33.2031 58.0078 -33.5449 57.0312 -34.5215 L 36.9141 -54.6875 C 37.5977 -55.1758 39.0625 -55.6152 41.0156 -55.6152 L 78.4668 -55.6152 C 80.4688 -55.6152 81.8848 -55.1758 82.6172 -54.6875 L 62.4512 -34.5215 C 61.5234 -33.5938 60.6445 -33.2031 59.7656 -33.2031 Z M 50.4883 -35.3516 L 34.2285 -19.0918 C 33.8867 -19.7266 33.6914 -20.9473 33.6914 -22.6074 L 33.6914 -47.8516 C 33.6914 -49.6094 33.8867 -50.8789 34.2773 -51.4648 Z M 68.9453 -35.3516 L 85.1562 -51.4648 C 85.498 -50.8789 85.7422 -49.6094 85.7422 -47.8516 L 85.7422 -22.6074 C 85.7422 -20.9473 85.5469 -19.7266 85.2051 -19.0918 Z M 59.7168 -29.0527 C 61.5234 -29.0527 62.9395 -29.7363 64.6484 -31.2988 L 65.9668 -32.5684 L 82.7148 -15.8691 C 81.9824 -15.2344 80.5664 -14.8438 78.4668 -14.8438 L 41.0156 -14.8438 C 38.916 -14.8438 37.5 -15.2344 36.7676 -15.8691 L 53.5156 -32.5684 L 54.834 -31.2988 C 56.543 -29.7363 57.959 -29.0527 59.7168 -29.0527 Z"/>
  </g>
  <g id="Medium-M" transform="matrix(1 0 0 1 1687.3 1126)">
   <path d="M 59.2285 15.332 C 86.9141 15.332 109.766 -7.51953 109.766 -35.1562 C 109.766 -62.793 86.8652 -85.6445 59.1797 -85.6445 C 31.543 -85.6445 8.74023 -62.793 8.74023 -35.1562 C 8.74023 -7.51953 31.5918 15.332 59.2285 15.332 Z M 59.2285 -32.959 C 58.3496 -32.959 57.4707 -33.252 56.4941 -34.2285 L 35.7422 -54.9805 C 36.4258 -55.4688 37.8418 -55.9082 39.8926 -55.9082 L 78.5645 -55.9082 C 80.5664 -55.9082 81.9824 -55.4688 82.666 -54.9805 L 61.9141 -34.2285 C 60.9863 -33.3008 60.1074 -32.959 59.2285 -32.959 Z M 49.7559 -35.2539 L 33.2031 -18.7012 C 32.8613 -19.3359 32.7148 -20.5078 32.7148 -22.2168 L 32.7148 -48.2422 C 32.7148 -49.9512 32.9102 -51.2207 33.2031 -51.7578 Z M 68.5059 -35.2539 L 85.0586 -51.7578 C 85.4004 -51.2207 85.5957 -49.9512 85.5957 -48.2422 L 85.5957 -22.2168 C 85.5957 -20.5078 85.4492 -19.3359 85.0586 -18.7012 Z M 59.1797 -28.9062 C 60.9375 -28.9062 62.3535 -29.541 64.1113 -31.2012 L 65.5762 -32.5684 L 82.666 -15.4785 C 81.9824 -14.8926 80.5664 -14.5508 78.5156 -14.5508 L 39.8438 -14.5508 C 37.793 -14.5508 36.377 -14.8926 35.6934 -15.4785 L 52.7832 -32.5684 L 54.248 -31.2012 C 56.0059 -29.541 57.4219 -28.9062 59.1797 -28.9062 Z"/>
  </g>
  <g id="Regular-M" transform="matrix(1 0 0 1 1391.3 1126)">
   <path d="M 58.5449 14.6484 C 85.791 14.6484 108.35 -7.95898 108.35 -35.1562 C 108.35 -62.4023 85.7422 -84.9609 58.4961 -84.9609 C 31.2988 -84.9609 8.74023 -62.4023 8.74023 -35.1562 C 8.74023 -7.95898 31.3477 14.6484 58.5449 14.6484 Z M 58.4961 -32.5684 C 57.666 -32.5684 56.7383 -32.8613 55.7617 -33.8379 L 34.2285 -55.3711 C 34.8633 -55.8594 36.2793 -56.3477 38.3301 -56.3477 L 78.6133 -56.3477 C 80.7129 -56.3477 82.1289 -55.8594 82.7637 -55.3711 L 61.1816 -33.8379 C 60.2539 -32.9102 59.375 -32.5684 58.4961 -32.5684 Z M 48.8281 -35.1562 L 31.8848 -18.2129 C 31.5918 -18.7988 31.3965 -20.0195 31.3965 -21.7285 L 31.3965 -48.7793 C 31.3965 -50.4883 31.543 -51.6602 31.8359 -52.1484 Z M 68.0176 -35.1562 L 85.0098 -52.1484 C 85.3027 -51.6602 85.4492 -50.4883 85.4492 -48.7793 L 85.4492 -21.7285 C 85.4492 -20.0195 85.2539 -18.7988 84.9609 -18.2129 Z M 58.4473 -28.7109 C 60.2051 -28.7109 61.5723 -29.3457 63.4766 -31.1035 L 65.0879 -32.5684 L 82.5684 -15.0391 C 81.9824 -14.502 80.6152 -14.1602 78.5645 -14.1602 L 38.3301 -14.1602 C 36.2793 -14.1602 34.9609 -14.502 34.375 -15.0391 L 51.8555 -32.5684 L 53.418 -31.1035 C 55.3223 -29.3457 56.6895 -28.7109 58.4473 -28.7109 Z"/>
  </g>
  <g id="Light-M" transform="matrix(1 0 0 1 1095.42 1126)">
   <path d="M 57.7148 13.8184 C 84.5215 13.8184 106.689 -8.30078 106.689 -35.1562 C 106.689 -61.9629 84.5215 -84.1309 57.666 -84.1309 C 30.8594 -84.1309 8.74023 -61.9629 8.74023 -35.1562 C 8.74023 -8.30078 30.9082 13.8184 57.7148 13.8184 Z M 57.7148 -32.1289 C 56.8359 -32.1289 55.8105 -32.4707 54.834 -33.3984 L 32.9102 -55.3711 C 33.5449 -55.957 35.0098 -56.4453 37.207 -56.4453 L 78.1738 -56.4453 C 80.3711 -56.4453 81.8848 -55.957 82.4707 -55.3711 L 60.5469 -33.3984 C 59.6191 -32.5195 58.5938 -32.1289 57.7148 -32.1289 Z M 48.3398 -35.0586 L 30.957 -17.6758 C 30.5176 -18.3105 30.3223 -19.5312 30.3223 -21.3379 L 30.3223 -49.1211 C 30.3223 -50.8301 30.5176 -52.0508 30.8105 -52.5391 Z M 66.8457 -35.0586 L 84.375 -52.5391 C 84.668 -52.0508 84.8633 -50.8301 84.8633 -49.1211 L 84.8633 -21.3379 C 84.8633 -19.5312 84.668 -18.3105 84.2285 -17.6758 Z M 57.666 -28.8574 C 59.4238 -28.8574 60.8398 -29.4922 62.5488 -31.1035 L 64.3555 -32.8125 L 82.2266 -14.9414 C 81.6406 -14.3066 80.2734 -14.0137 78.1738 -14.0137 L 37.207 -14.0137 C 35.1074 -14.0137 33.7402 -14.3066 33.1055 -14.9414 L 50.9766 -32.8125 L 52.832 -31.1035 C 54.541 -29.4922 55.957 -28.8574 57.666 -28.8574 Z"/>
  </g>
  <g id="Thin-M" transform="matrix(1 0 0 1 799.806 1126)">
   <path d="M 56.6406 12.793 C 82.9102 12.793 104.492 -8.78906 104.492 -35.1074 C 104.492 -61.377 82.9102 -82.959 56.5918 -82.959 C 30.3223 -82.959 8.74023 -61.377 8.74023 -35.1074 C 8.74023 -8.78906 30.3223 12.793 56.6406 12.793 Z M 56.6406 -31.543 C 55.7129 -31.543 54.541 -31.9824 53.6133 -32.9102 L 31.2012 -55.3223 C 31.7871 -56.0547 33.3984 -56.5918 35.6934 -56.5918 L 77.6367 -56.5918 C 79.9316 -56.5918 81.4941 -56.0547 82.1289 -55.3223 L 59.668 -32.9102 C 58.7891 -32.0312 57.6172 -31.543 56.6406 -31.543 Z M 47.7051 -34.9121 L 29.6875 -16.9434 C 29.1504 -17.6758 28.8574 -18.9453 28.8574 -20.8008 L 28.8574 -49.6094 C 28.8574 -51.3672 29.1016 -52.5391 29.4434 -53.125 Z M 65.2832 -34.9121 L 83.5449 -53.125 C 83.8867 -52.5391 84.1309 -51.3672 84.1309 -49.6094 L 84.1309 -20.8008 C 84.1309 -18.9453 83.8379 -17.6758 83.3008 -16.9434 Z M 56.6406 -29.0527 C 58.3008 -29.0527 59.8145 -29.7363 61.2305 -31.1035 L 63.4766 -33.1543 L 81.7871 -14.7949 C 81.1523 -14.1113 79.834 -13.8184 77.6367 -13.8184 L 35.6934 -13.8184 C 33.4961 -13.8184 32.1777 -14.1113 31.4941 -14.7949 L 49.8535 -33.1543 L 52.0508 -31.1035 C 53.4668 -29.7363 54.9805 -29.0527 56.6406 -29.0527 Z"/>
  </g>
  <g id="Ultralight-M" transform="matrix(1 0 0 1 503.656 1126)">
   <path d="M 56.0547 12.2559 C 82.0801 12.2559 103.369 -9.0332 103.369 -35.0586 C 103.369 -61.084 82.0801 -82.373 56.0547 -82.373 C 30.0293 -82.373 8.74023 -61.084 8.74023 -35.0586 C 8.74023 -9.0332 30.0293 12.2559 56.0547 12.2559 Z M 56.1035 -31.25 C 55.127 -31.25 53.8574 -31.7383 52.9785 -32.6172 L 30.2734 -55.3223 C 30.9082 -56.1035 32.5195 -56.6406 34.9121 -56.6406 L 77.3438 -56.6406 C 79.6875 -56.6406 81.3477 -56.1035 81.9336 -55.3223 L 59.2285 -32.6172 C 58.3984 -31.7383 57.1289 -31.25 56.1035 -31.25 Z M 47.3633 -34.8145 L 29.0527 -16.6016 C 28.418 -17.334 28.125 -18.6523 28.125 -20.5078 L 28.125 -49.8535 C 28.125 -51.6113 28.3691 -52.7832 28.7598 -53.418 Z M 64.502 -34.8145 L 83.1055 -53.418 C 83.4961 -52.7832 83.7402 -51.6113 83.7402 -49.8535 L 83.7402 -20.5078 C 83.7402 -18.6523 83.4473 -17.334 82.8125 -16.6016 Z M 56.1035 -29.1504 C 57.7637 -29.1504 59.3262 -29.834 60.5957 -31.1035 L 62.9883 -33.3496 L 81.5918 -14.7461 C 80.9082 -14.0137 79.5898 -13.7695 77.3438 -13.7695 L 34.9121 -13.7695 C 32.666 -13.7695 31.3477 -14.0137 30.6641 -14.7461 L 49.2676 -33.3496 L 51.6602 -31.1035 C 52.9297 -29.834 54.4922 -29.1504 56.1035 -29.1504 Z"/>
  </g>
  <g id="Black-S" transform="matrix(1 0 0 1 2884.57 696)">
   <path d="M 48.8281 6.83594 C 71.9727 6.83594 90.8203 -12.0117 90.8203 -35.1562 C 90.8203 -58.3008 71.9727 -77.1484 48.8281 -77.1484 C 25.6836 -77.1484 6.83594 -58.3008 6.83594 -35.1562 C 6.83594 -12.0117 25.6836 6.83594 48.8281 6.83594 Z M 48.877 -34.668 C 48.1445 -34.668 47.5098 -35.0586 46.7285 -35.8398 L 33.3008 -49.3164 C 33.9844 -49.7559 35.1074 -50 36.5234 -50 L 61.2305 -50 C 62.6465 -50 63.7207 -49.7559 64.4531 -49.3164 L 51.0254 -35.8398 C 50.2441 -35.0586 49.6094 -34.668 48.877 -34.668 Z M 42.2363 -35.6445 L 30.6152 -23.9746 C 30.2734 -24.6094 30.0781 -25.5371 30.0781 -26.8066 L 30.0781 -43.6035 C 30.0781 -45.0684 30.3711 -46.1914 30.8594 -46.9238 Z M 55.5176 -35.6445 L 66.8945 -46.9238 C 67.3828 -46.1914 67.6758 -45.0684 67.6758 -43.6035 L 67.6758 -26.8066 C 67.6758 -25.5371 67.4805 -24.6094 67.1387 -23.9746 Z M 48.877 -30.957 C 50.2441 -30.957 51.4648 -31.4941 52.4902 -32.5195 L 53.1738 -33.2031 L 65.0391 -21.3379 C 64.2578 -20.752 62.9883 -20.4102 61.3281 -20.4102 L 36.4258 -20.4102 C 34.7656 -20.4102 33.4961 -20.752 32.7148 -21.3379 L 44.5801 -33.2031 L 45.2637 -32.5195 C 46.2891 -31.4941 47.5098 -30.957 48.877 -30.957 Z"/>
  </g>
  <g id="Heavy-S" transform="matrix(1 0 0 1 2588.47 696)">
   <path d="M 48.2422 6.20117 C 70.9961 6.20117 89.5996 -12.4023 89.5996 -35.1562 C 89.5996 -57.9102 70.9961 -76.5625 48.1934 -76.5625 C 25.4395 -76.5625 6.83594 -57.9102 6.83594 -35.1562 C 6.83594 -12.4023 25.4395 6.20117 48.2422 6.20117 Z M 48.2422 -34.375 C 47.5586 -34.375 46.875 -34.7168 46.1426 -35.498 L 31.9336 -49.707 C 32.5684 -50.1465 33.6914 -50.3906 35.1074 -50.3906 L 61.377 -50.3906 C 62.8418 -50.3906 63.916 -50.1465 64.5508 -49.707 L 50.3906 -35.498 C 49.6094 -34.7168 48.9746 -34.375 48.2422 -34.375 Z M 41.3574 -35.5469 L 29.3945 -23.5352 C 29.1016 -24.1211 28.9062 -25.0488 28.9062 -26.3184 L 28.9062 -44.0918 C 28.9062 -45.5078 29.1504 -46.582 29.5898 -47.2168 Z M 55.127 -35.5469 L 66.8945 -47.2168 C 67.334 -46.582 67.5781 -45.5078 67.5781 -44.0918 L 67.5781 -26.3184 C 67.5781 -25.0488 67.3828 -24.1211 67.0898 -23.5352 Z M 48.2422 -30.7617 C 49.6094 -30.7617 50.7812 -31.25 51.9531 -32.373 L 52.7344 -33.1543 L 64.9902 -20.8984 C 64.3066 -20.3613 63.0859 -20.0195 61.4258 -20.0195 L 35.0586 -20.0195 C 33.3984 -20.0195 32.1777 -20.3613 31.4941 -20.8984 L 43.75 -33.1543 L 44.5312 -32.373 C 45.7031 -31.25 46.875 -30.7617 48.2422 -30.7617 Z"/>
  </g>
  <g id="Bold-S" transform="matrix(1 0 0 1 2292.44 696)">
   <path d="M 47.5586 5.51758 C 69.873 5.51758 88.2324 -12.8418 88.2324 -35.1562 C 88.2324 -57.5195 69.873 -75.8789 47.5098 -75.8789 C 25.1953 -75.8789 6.83594 -57.5195 6.83594 -35.1562 C 6.83594 -12.8418 25.1953 5.51758 47.5586 5.51758 Z M 47.5586 -34.0332 C 46.875 -34.0332 46.1914 -34.2773 45.459 -35.0586 L 30.3711 -50.1465 C 30.957 -50.5859 32.0801 -50.8789 33.5449 -50.8789 L 61.5234 -50.8789 C 62.9883 -50.8789 64.1113 -50.5859 64.6973 -50.1465 L 49.6094 -35.0586 C 48.877 -34.3262 48.2422 -34.0332 47.5586 -34.0332 Z M 40.3809 -35.4492 L 28.0273 -23.0957 C 27.7344 -23.584 27.5879 -24.5117 27.5879 -25.8301 L 27.5879 -44.6289 C 27.5879 -46.0449 27.7832 -47.0703 28.125 -47.6074 Z M 54.6875 -35.4492 L 66.8945 -47.6074 C 67.2363 -47.0703 67.4316 -46.0449 67.4316 -44.6289 L 67.4316 -25.8301 C 67.4316 -24.5117 67.2852 -23.584 66.9922 -23.0957 Z M 47.5098 -30.5176 C 48.9258 -30.5176 50.0488 -31.0059 51.3184 -32.2754 L 52.2461 -33.1055 L 64.9414 -20.4102 C 64.3066 -19.9219 63.1348 -19.5801 61.5234 -19.5801 L 33.4961 -19.5801 C 31.8848 -19.5801 30.7129 -19.9219 30.127 -20.4102 L 42.8223 -33.1055 L 43.7012 -32.2754 C 45.0195 -31.0059 46.1426 -30.5176 47.5098 -30.5176 Z"/>
  </g>
  <g id="Semibold-S" transform="matrix(1 0 0 1 1996.2 696)">
   <path d="M 47.0703 5.0293 C 69.0918 5.0293 87.3047 -13.1348 87.3047 -35.2051 C 87.3047 -57.2266 69.0918 -75.4395 47.0215 -75.4395 C 25 -75.4395 6.83594 -57.2266 6.83594 -35.2051 C 6.83594 -13.1348 25.0488 5.0293 47.0703 5.0293 Z M 47.0703 -33.7891 C 46.3867 -33.7891 45.752 -34.0332 44.9707 -34.8145 L 29.2969 -50.4883 C 29.834 -50.8789 30.957 -51.1719 32.4707 -51.1719 L 61.6211 -51.1719 C 63.1348 -51.1719 64.209 -50.8789 64.7949 -50.4883 L 49.1211 -34.8145 C 48.3887 -34.0332 47.7539 -33.7891 47.0703 -33.7891 Z M 39.6973 -35.3516 L 27.0996 -22.7539 C 26.8555 -23.2422 26.709 -24.1699 26.709 -25.4883 L 26.709 -45.0195 C 26.709 -46.3867 26.8555 -47.3633 27.1484 -47.8516 Z M 54.3457 -35.3516 L 66.8945 -47.8516 C 67.1875 -47.3633 67.334 -46.3867 67.334 -45.0195 L 67.334 -25.4883 C 67.334 -24.1699 67.2363 -23.2422 66.9434 -22.7539 Z M 47.0215 -30.3223 C 48.4375 -30.3223 49.5117 -30.8594 50.9277 -32.1289 L 51.9043 -33.0566 L 64.8926 -20.0684 C 64.3555 -19.5801 63.2324 -19.2871 61.6211 -19.2871 L 32.4219 -19.2871 C 30.8594 -19.2871 29.6875 -19.5801 29.1504 -20.0684 L 42.1387 -33.0566 L 43.1152 -32.1289 C 44.5312 -30.8594 45.6543 -30.3223 47.0215 -30.3223 Z"/>
  </g>
  <g id="Medium-S" transform="matrix(1 0 0 1 1699.83 696)">
   <path d="M 46.7285 4.6875 C 68.5547 4.6875 86.6211 -13.3789 86.6211 -35.2051 C 86.6211 -56.9824 68.5059 -75.0977 46.6797 -75.0977 C 24.8535 -75.0977 6.83594 -56.9824 6.83594 -35.2051 C 6.83594 -13.3789 24.9023 4.6875 46.7285 4.6875 Z M 46.6797 -33.5938 C 46.0449 -33.5938 45.3613 -33.7891 44.6289 -34.5703 L 28.4668 -50.7324 C 29.0039 -51.0742 30.127 -51.416 31.6406 -51.416 L 61.7188 -51.416 C 63.2324 -51.416 64.3066 -51.0742 64.8438 -50.7324 L 48.7305 -34.5703 C 47.998 -33.8379 47.3633 -33.5938 46.6797 -33.5938 Z M 39.1602 -35.3027 L 26.3672 -22.5098 C 26.123 -22.9492 26.0254 -23.877 26.0254 -25.1953 L 26.0254 -45.3125 C 26.0254 -46.6309 26.1719 -47.6074 26.416 -47.998 Z M 54.1504 -35.3027 L 66.8945 -47.998 C 67.1387 -47.6074 67.2852 -46.6309 67.2852 -45.3125 L 67.2852 -25.1953 C 67.2852 -23.877 67.1387 -22.9492 66.9434 -22.5098 Z M 46.6797 -30.2246 C 48.0469 -30.2246 49.1211 -30.7129 50.5859 -32.0801 L 51.6602 -33.0566 L 64.8926 -19.8242 C 64.3555 -19.3848 63.2812 -19.0918 61.6699 -19.0918 L 31.6406 -19.0918 C 30.0293 -19.0918 28.9551 -19.3848 28.418 -19.8242 L 41.6504 -33.0566 L 42.7246 -32.0801 C 44.1895 -30.7129 45.2637 -30.2246 46.6797 -30.2246 Z"/>
  </g>
  <g id="Regular-S" transform="matrix(1 0 0 1 1403.58 696)">
   <path d="M 46.2402 4.19922 C 67.7734 4.19922 85.6934 -13.6719 85.6934 -35.2051 C 85.6934 -56.7383 67.7246 -74.6094 46.1914 -74.6094 C 24.707 -74.6094 6.83594 -56.7383 6.83594 -35.2051 C 6.83594 -13.6719 24.7559 4.19922 46.2402 4.19922 Z M 46.1914 -33.3984 C 45.5566 -33.3984 44.9219 -33.5449 44.1406 -34.3262 L 27.4414 -51.0254 C 27.9297 -51.3672 29.0039 -51.709 30.5664 -51.709 L 61.8164 -51.709 C 63.3789 -51.709 64.4531 -51.3672 64.9414 -51.0254 L 48.2422 -34.3262 C 47.5098 -33.5938 46.875 -33.3984 46.1914 -33.3984 Z M 38.4766 -35.2539 L 25.4395 -22.168 C 25.2441 -22.5586 25.1465 -23.5352 25.1465 -24.8535 L 25.1465 -45.6543 C 25.1465 -46.9727 25.2441 -47.9004 25.4395 -48.2422 Z M 53.8086 -35.2539 L 66.8945 -48.2422 C 67.0898 -47.9004 67.1875 -46.9727 67.1875 -45.6543 L 67.1875 -24.8535 C 67.1875 -23.5352 67.0898 -22.5586 66.8945 -22.168 Z M 46.1914 -30.0293 C 47.5586 -30.0293 48.6328 -30.5664 50.1953 -31.9824 L 51.3184 -33.0078 L 64.8438 -19.4824 C 64.4043 -19.043 63.3301 -18.7988 61.7676 -18.7988 L 30.5664 -18.7988 C 29.0039 -18.7988 27.9297 -19.043 27.4902 -19.4824 L 41.0156 -33.0078 L 42.1387 -31.9824 C 43.7012 -30.5664 44.7754 -30.0293 46.1914 -30.0293 Z"/>
  </g>
  <g id="Light-S" transform="matrix(1 0 0 1 1107.6 696)">
   <path d="M 45.5078 3.51562 C 66.6992 3.51562 84.2285 -14.0137 84.2285 -35.1562 C 84.2285 -56.3477 66.6504 -73.877 45.5078 -73.877 C 24.3164 -73.877 6.83594 -56.3477 6.83594 -35.1562 C 6.83594 -14.0137 24.3652 3.51562 45.5078 3.51562 Z M 45.5078 -32.959 C 44.8242 -32.959 44.0918 -33.2031 43.3105 -33.9844 L 26.2695 -51.0254 C 26.7578 -51.416 27.9297 -51.8066 29.5898 -51.8066 L 61.4258 -51.8066 C 63.0859 -51.8066 64.209 -51.416 64.6973 -51.0254 L 47.6562 -33.9844 C 46.9727 -33.252 46.1914 -32.959 45.5078 -32.959 Z M 38.0371 -35.1562 L 24.6094 -21.6797 C 24.3164 -22.168 24.1699 -23.0957 24.1699 -24.5117 L 24.1699 -45.9961 C 24.1699 -47.3145 24.2676 -48.2422 24.5117 -48.6328 Z M 52.7832 -35.1562 L 66.3574 -48.6328 C 66.5527 -48.2422 66.6992 -47.3145 66.6992 -45.9961 L 66.6992 -24.5117 C 66.6992 -23.0957 66.5527 -22.168 66.2598 -21.6797 Z M 45.459 -30.1758 C 46.8262 -30.1758 47.9492 -30.7129 49.3652 -31.9824 L 50.6836 -33.252 L 64.5508 -19.3848 C 64.0625 -18.8965 63.0371 -18.6523 61.377 -18.6523 L 29.5898 -18.6523 C 27.9297 -18.6523 26.9043 -18.8965 26.416 -19.3848 L 40.2832 -33.252 L 41.6016 -31.9824 C 43.0176 -30.7129 44.0918 -30.1758 45.459 -30.1758 Z"/>
  </g>
  <g id="Thin-S" transform="matrix(1 0 0 1 811.867 696)">
   <path d="M 44.5801 2.58789 C 65.2832 2.58789 82.2754 -14.4043 82.2754 -35.1562 C 82.2754 -55.8594 65.2344 -72.8516 44.5312 -72.8516 C 23.8281 -72.8516 6.83594 -55.8594 6.83594 -35.1562 C 6.83594 -14.4043 23.877 2.58789 44.5801 2.58789 Z M 44.5801 -32.4707 C 43.8477 -32.4707 42.9688 -32.8125 42.2363 -33.4961 L 24.7559 -50.9766 C 25.2441 -51.5137 26.4648 -51.9043 28.2227 -51.9043 L 60.9375 -51.9043 C 62.6953 -51.9043 63.916 -51.5137 64.4043 -50.9766 L 46.9238 -33.4961 C 46.2402 -32.8125 45.3125 -32.4707 44.5801 -32.4707 Z M 37.5 -35.0098 L 23.4863 -21.0449 C 23.0957 -21.582 22.9004 -22.6074 22.9004 -24.0234 L 22.9004 -46.3867 C 22.9004 -47.7539 23.0469 -48.6816 23.3398 -49.1211 Z M 51.4648 -35.0098 L 65.625 -49.1211 C 65.8691 -48.6816 66.0645 -47.7539 66.0645 -46.3867 L 66.0645 -24.0234 C 66.0645 -22.6074 65.8203 -21.582 65.4297 -21.0449 Z M 44.5801 -30.3711 C 45.8984 -30.3711 47.0703 -30.8594 48.2422 -31.9824 L 49.9023 -33.5449 L 64.1602 -19.2871 C 63.6719 -18.75 62.5977 -18.5059 60.8887 -18.5059 L 28.2227 -18.5059 C 26.5137 -18.5059 25.4883 -18.75 25 -19.2871 L 39.2578 -33.5449 L 40.918 -31.9824 C 42.0898 -30.8594 43.2617 -30.3711 44.5801 -30.3711 Z"/>
  </g>
  <g id="Ultralight-S" transform="matrix(1 0 0 1 515.644 696)">
   <path d="M 44.043 2.09961 C 64.502 2.09961 81.2988 -14.6484 81.2988 -35.1074 C 81.2988 -55.5664 64.502 -72.3145 44.043 -72.3145 C 23.584 -72.3145 6.83594 -55.5664 6.83594 -35.1074 C 6.83594 -14.6484 23.584 2.09961 44.043 2.09961 Z M 44.0918 -32.1777 C 43.3105 -32.1777 42.3828 -32.5684 41.6992 -33.252 L 23.9746 -50.9766 C 24.4629 -51.5625 25.7324 -52.002 27.5391 -52.002 L 60.6445 -52.002 C 62.5 -52.002 63.7695 -51.5625 64.2578 -50.9766 L 46.5332 -33.252 C 45.8496 -32.5684 44.873 -32.1777 44.0918 -32.1777 Z M 37.1582 -34.9121 L 22.9492 -20.752 C 22.4609 -21.2891 22.2168 -22.3145 22.2168 -23.7793 L 22.2168 -46.6309 C 22.2168 -47.998 22.4121 -48.9258 22.7051 -49.4141 Z M 50.7324 -34.9121 L 65.2344 -49.4141 C 65.5273 -48.9258 65.7227 -47.998 65.7227 -46.6309 L 65.7227 -23.7793 C 65.7227 -22.3145 65.4785 -21.2891 64.9902 -20.752 Z M 44.0918 -30.4688 C 45.3613 -30.4688 46.582 -31.0059 47.6562 -31.9824 L 49.4629 -33.6914 L 63.9648 -19.1895 C 63.4277 -18.6035 62.4023 -18.4082 60.6445 -18.4082 L 27.5391 -18.4082 C 25.7812 -18.4082 24.7559 -18.6035 24.2188 -19.1895 L 38.7207 -33.6914 L 40.5762 -31.9824 C 41.6016 -31.0059 42.8223 -30.4688 44.0918 -30.4688 Z"/>
  </g>
 </g>
</svg>
